<?xml version="1.0" encoding="UTF-8"?>
<svg xmlns="http://www.w3.org/2000/svg" xmlns:xlink="http://www.w3.org/1999/xlink" version="1.1" viewBox="0 0 612 227">
  <defs>
    <style>
      .cls-1, .cls-2, .cls-3, .cls-4, .cls-5, .cls-6 {
        fill: none;
      }

      .cls-7, .cls-8 {
        fill: #fc8d62;
      }

      .cls-7, .cls-9, .cls-10, .cls-11 {
        font-family: ArialMT, Arial;
        font-size: 6px;
      }

      .cls-9, .cls-12 {
        fill: #66c2a5;
      }

      .cls-2 {
        stroke: #66c2a5;
      }

      .cls-2, .cls-3, .cls-4, .cls-5, .cls-6 {
        stroke-linecap: round;
        stroke-linejoin: round;
      }

      .cls-2, .cls-3, .cls-5 {
        stroke-width: .9px;
      }

      .cls-13, .cls-11 {
        fill: #8da0cb;
      }

      .cls-14 {
        font-size: 10px;
      }

      .cls-14, .cls-15 {
        font-family: Arial-BoldMT, Arial;
        font-weight: 700;
      }

      .cls-16 {
        clip-path: url(#clippath-1);
      }

      .cls-17 {
        clip-path: url(#clippath-3);
      }

      .cls-18 {
        clip-path: url(#clippath-4);
      }

      .cls-19 {
        clip-path: url(#clippath-2);
      }

      .cls-20 {
        clip-path: url(#clippath-7);
      }

      .cls-21 {
        clip-path: url(#clippath-6);
      }

      .cls-22 {
        clip-path: url(#clippath-5);
      }

      .cls-3 {
        stroke: #fc8d62;
      }

      .cls-23 {
        fill: #fff;
        opacity: 0;
      }

      .cls-4, .cls-6 {
        stroke: #000;
        stroke-width: .4px;
      }

      .cls-5 {
        stroke: #8da0cb;
      }

      .cls-24 {
        clip-path: url(#clippath);
      }

      .cls-6 {
        stroke-dasharray: 2.4 2.4;
      }

      .cls-15 {
        font-size: 8.6px;
      }
    </style>
    <clipPath id="clippath">
      <rect class="cls-1" x="57.9" y="48" width="221" height="135.3"/>
    </clipPath>
    <clipPath id="clippath-1">
      <rect class="cls-1" x="22.8" y="12.9" width="274.1" height="214.1"/>
    </clipPath>
    <clipPath id="clippath-2">
      <rect class="cls-1" x="22.8" y="12.9" width="274.1" height="214.1"/>
    </clipPath>
    <clipPath id="clippath-3">
      <rect class="cls-1" x="57.9" y="48" width="221" height="135.3"/>
    </clipPath>
    <clipPath id="clippath-4">
      <rect class="cls-1" x="359.2" y="48" width="221" height="135.3"/>
    </clipPath>
    <clipPath id="clippath-5">
      <rect class="cls-1" x="324.1" y="12.9" width="274.1" height="214.1"/>
    </clipPath>
    <clipPath id="clippath-6">
      <rect class="cls-1" x="324.1" y="12.9" width="274.1" height="214.1"/>
    </clipPath>
    <clipPath id="clippath-7">
      <rect class="cls-1" x="359.2" y="48" width="221" height="135.3"/>
    </clipPath>
  </defs>
  <!-- Generator: Adobe Illustrator 28.7.8, SVG Export Plug-In . SVG Version: 1.2.0 Build 200)  -->
  <g>
    <g id="Layer_1">
      <g>
        <text class="cls-7" transform="translate(556.4 58.4)"><tspan x="0" y="0">ADIBO</tspan></text>
        <text class="cls-11" transform="translate(535.4 68.4)"><tspan x="0" y="0">triazole ADIBO</tspan></text>
      </g>
      <text class="cls-14" transform="translate(5.8 12.9)"><tspan x="0" y="0">a</tspan></text>
      <text class="cls-14" transform="translate(311.8 13)"><tspan x="0" y="0">b</tspan></text>
      <text class="cls-10" transform="translate(422.4 143)"><tspan x="0" y="0">307 nm</tspan></text>
      <g>
        <g class="cls-24">
          <polyline class="cls-2" points="-2.1 131.9 -.7 122.8 .7 110.5 2 93 3.4 72.9 4.7 53.9 6.1 39 7.5 22.7 8.8 10.6 10.2 .9 11.6 -7.8 12.9 -14 14.3 -18.9 15.7 -21.2 17 -24.4 18.4 -28.9 19.8 -32.3 21.1 -35.1 22.5 -40.1 23.8 -49.6 25.2 -56.5 26.6 -63.7 27.9 -71.8 29.3 -77.2 30.7 -78.5 32 -78.3 33.4 -77.2 34.8 -73 36.1 -66.6 37.5 -58.5 38.8 -48.6 40.2 -37 41.6 -22 42.9 -2.2 44.3 10.8 45.7 22 47 33.1 48.4 45.8 49.8 60.3 51.1 76.7 52.5 97.6 53.9 111.2 55.2 121 56.6 128.8 57.9 135.7 59.3 142.7 60.7 149.1 62 154.6 63.4 157.3 64.8 159.1 66.1 160.8 67.5 162.2 68.9 163.1 70.2 163.5 71.6 163.7 72.9 163.5 74.3 163.1 75.7 162.6 77 161.9 78.4 161.1 79.8 160.3 81.1 159.6 82.5 158.8 83.9 157.9 85.2 156.6 86.6 155.3 87.9 153.8 89.3 152 90.7 150.5 92 148.9 93.4 146.9 94.8 144.9 96.1 142.8 97.5 140.4 98.9 138.2 100.2 135.7 101.6 133.1 103 130.5 104.3 128.4 105.7 126.1 107 123.2 108.4 121 109.8 118.9 111.1 117 112.5 114.8 113.9 112.3 115.2 109.8 116.6 106.8 118 104.4 119.3 102 120.7 99.9 122 98.4 123.4 97.6 124.8 97.6 126.1 98.2 127.5 99.1 128.9 100.1 130.2 101 131.6 102 133 102.6 134.3 103.3 135.7 103.6 137 103.7 138.4 103.5 139.8 103.2 141.1 102.8 142.5 102.5 143.9 102.5 145.2 103 146.6 104 148 105.8 149.3 108.2 150.7 111 152.1 115.2 153.4 118.3 154.8 120.9 156.1 122.9 157.5 124.6 158.9 125.8 160.2 126.6 161.6 126.9 163 127 164.3 127 165.7 127.3 167.1 127.9 168.4 129.4 169.8 131.6 171.1 134.4 172.5 138.1 173.9 142.4 175.2 147 176.6 151.6 178 157 179.3 160.8 180.7 163.9 182.1 166.6 183.4 169.1 184.8 171.2 186.1 173.4 187.5 174.8 188.9 176 190.2 177.1 191.6 177.9 193 178.7 194.3 179.4 195.7 179.9 197.1 180.3 198.4 180.7 199.8 181 201.2 181.3 202.5 181.5 203.9 181.8 205.2 181.9 206.6 182.2 208 182.3 209.3 182.5 210.7 182.6 212.1 182.6 213.4 182.7 214.8 182.7 216.2 182.9 217.5 182.9 218.9 183 220.2 183 221.6 183 223 183 224.3 183 225.7 183 227.1 183 228.4 183 229.8 183 231.2 183 232.5 183 233.9 183 235.3 183.2 236.6 183.2 238 183.2 239.3 183.2 240.7 183.2 242.1 183.2 243.4 183.2 244.8 183.2 246.2 183.2 247.5 183.2 248.9 183.2 250.3 183.2 251.6 183.3 253 183.3 254.3 183.3 255.7 183.3 257.1 183.3 258.4 183.3 259.8 183.3 261.2 183.3 262.5 183.3 263.9 183.3 265.3 183.3 266.6 183.3 268 183.3 269.3 183.3 270.7 183.3"/>
        </g>
        <g class="cls-16">
          <line class="cls-4" x1="66.1" y1="183.3" x2="270.7" y2="183.3"/>
          <line class="cls-4" x1="66.1" y1="183.3" x2="66.1" y2="187.6"/>
          <line class="cls-4" x1="134.3" y1="183.3" x2="134.3" y2="187.6"/>
          <line class="cls-4" x1="202.5" y1="183.3" x2="202.5" y2="187.6"/>
          <line class="cls-4" x1="270.7" y1="183.3" x2="270.7" y2="187.6"/>
          <text class="cls-10" transform="translate(60.2 198.7)"><tspan x="0" y="0">250</tspan></text>
          <text class="cls-10" transform="translate(128.4 198.7)"><tspan x="0" y="0">300</tspan></text>
          <text class="cls-10" transform="translate(196.6 198.7)"><tspan x="0" y="0">350</tspan></text>
          <text class="cls-10" transform="translate(264.8 198.7)"><tspan x="0" y="0">400</tspan></text>
          <line class="cls-4" x1="57.9" y1="183.3" x2="57.9" y2="48"/>
          <line class="cls-4" x1="57.9" y1="183.3" x2="53.7" y2="183.3"/>
          <line class="cls-4" x1="57.9" y1="156.2" x2="53.7" y2="156.2"/>
          <line class="cls-4" x1="57.9" y1="129.2" x2="53.7" y2="129.2"/>
          <line class="cls-4" x1="57.9" y1="102.1" x2="53.7" y2="102.1"/>
          <line class="cls-4" x1="57.9" y1="75" x2="53.7" y2="75"/>
          <line class="cls-4" x1="57.9" y1="48" x2="53.7" y2="48"/>
          <text class="cls-10" transform="translate(39.5 185.8)"><tspan x="0" y="0">0.0</tspan></text>
          <text class="cls-10" transform="translate(39.5 158.8)"><tspan x="0" y="0">0.2</tspan></text>
          <text class="cls-10" transform="translate(39.5 131.7)"><tspan x="0" y="0">0.4</tspan></text>
          <text class="cls-10" transform="translate(39.5 104.7)"><tspan x="0" y="0">0.6</tspan></text>
          <text class="cls-10" transform="translate(39.5 77.6)"><tspan x="0" y="0">0.8</tspan></text>
          <text class="cls-10" transform="translate(39.5 50.5)"><tspan x="0" y="0">1.0</tspan></text>
          <g>
            <rect class="cls-23" x="57.9" y="48" width="221" height="135.3"/>
            <rect class="cls-4" x="57.9" y="48" width="221" height="135.3"/>
          </g>
        </g>
        <g class="cls-19">
          <text class="cls-15" transform="translate(148.4 33.5)"><tspan x="0" y="0">4C-DMBO</tspan></text>
          <text class="cls-10" transform="translate(141.3 215.8)"><tspan x="0" y="0">Wavelength (nm)</tspan></text>
          <text class="cls-10" transform="translate(30.5 143) rotate(-90)"><tspan x="0" y="0">Absorbance (AU)</tspan></text>
        </g>
        <g class="cls-17">
          <line class="cls-6" x1="146.6" y1="183.3" x2="146.6" y2="60.2"/>
          <polyline class="cls-3" points="-2.1 126.5 -.7 115.8 .7 102 2 82.9 3.4 63.5 4.7 41.8 6.1 27.8 7.5 14.3 8.8 .5 10.2 -8.7 11.6 -14.9 12.9 -22.9 14.3 -29.2 15.7 -31 17 -32.5 18.4 -35.8 19.8 -40.9 21.1 -46.7 22.5 -53.6 23.8 -61 25.2 -68 26.6 -76.2 27.9 -80.7 29.3 -83.8 30.7 -86.8 32 -87.9 33.4 -88.1 34.8 -86.5 36.1 -82.5 37.5 -77.6 38.8 -71 40.2 -61.1 41.6 -44 42.9 -12 44.3 14.6 45.7 39 47 60.3 48.4 79 49.8 95.1 51.1 108.6 52.5 122.1 53.9 129.6 55.2 134.6 56.6 138 57.9 140.9 59.3 143.8 60.7 146.5 62 148.6 63.4 149.5 64.8 150 66.1 150.1 67.5 150.1 68.9 149.6 70.2 148.8 71.6 148 72.9 146.9 74.3 145.7 75.7 144.5 77 143 78.4 141.3 79.8 139.9 81.1 138.8 82.5 137.6 83.9 136.2 85.2 134.7 86.6 133 87.9 131.1 89.3 128.8 90.7 126.9 92 124.7 93.4 121.9 94.8 118.7 96.1 115.8 97.5 112.5 98.9 108.5 100.2 105.5 101.6 103.3 103 102.1 104.3 101.3 105.7 100.5 107 99 108.4 97.4 109.8 96 111.1 94.7 112.5 92.9 113.9 90.6 115.2 87.8 116.6 83.3 118 78.7 119.3 72.9 120.7 67.1 122 63.4 123.4 63.4 124.8 67.3 126.1 75.3 127.5 81 128.9 84.8 130.2 86.8 131.6 87.9 133 89 134.3 91 135.7 93.3 137 95.6 138.4 96.8 139.8 96.3 141.1 93.4 142.5 86.8 143.9 78.4 145.2 68.5 146.6 60.2 148 57.7 149.3 64.8 150.7 80.6 152.1 107.1 153.4 125.2 154.8 139.2 156.1 149.7 157.5 157.7 158.9 163.9 160.2 168.4 161.6 171.7 163 173.3 164.3 174.5 165.7 175.3 167.1 175.8 168.4 176.4 169.8 176.9 171.1 177.3 172.5 177.7 173.9 178.1 175.2 178.7 176.6 179.1 178 179.6 179.3 180 180.7 180.3 182.1 180.6 183.4 180.9 184.8 181 186.1 181.1 187.5 181.4 188.9 181.4 190.2 181.5 191.6 181.7 193 181.8 194.3 181.8 195.7 181.9 197.1 181.9 198.4 181.9 199.8 182.1 201.2 182.1 202.5 182.2 203.9 182.2 205.2 182.2 206.6 182.2 208 182.3 209.3 182.3 210.7 182.3 212.1 182.3 213.4 182.3 214.8 182.3 216.2 182.5 217.5 182.5 218.9 182.5 220.2 182.5 221.6 182.5 223 182.5 224.3 182.5 225.7 182.5 227.1 182.5 228.4 182.5 229.8 182.5 231.2 182.5 232.5 182.5 233.9 182.5 235.3 182.5 236.6 182.5 238 182.5 239.3 182.5 240.7 182.5 242.1 182.5 243.4 182.5 244.8 182.5 246.2 182.5 247.5 182.6 248.9 182.6 250.3 182.6 251.6 182.6 253 182.6 254.3 182.6 255.7 182.6 257.1 182.6 258.4 182.6 259.8 182.6 261.2 182.6 262.5 182.6 263.9 182.6 265.3 182.6 266.6 182.6 268 182.6 269.3 182.6 270.7 182.6"/>
          <polyline class="cls-5" points="-2.1 192.8 -.7 186.5 .7 181.9 2 182.2 3.4 187.2 4.7 189.4 6.1 181.4 7.5 175.6 8.8 177.3 10.2 180.2 11.6 179.5 12.9 180 14.3 181.8 15.7 179 17 178 18.4 178.4 19.8 176.1 21.1 174.5 22.5 176.8 23.8 178.4 25.2 181.1 26.6 183.3 27.9 179.9 29.3 178.7 30.7 178.8 32 179.9 33.4 178.1 34.8 170.7 36.1 174.5 37.5 179.1 38.8 176.3 40.2 178 41.6 180.6 42.9 177.7 44.3 176 45.7 172.1 47 168 48.4 167.1 49.8 163.5 51.1 156.6 52.5 144.7 53.9 138.1 55.2 134.7 56.6 132.8 57.9 131.3 59.3 130 60.7 128.9 62 127.8 63.4 127.5 64.8 127.3 66.1 127.1 67.5 127.1 68.9 127.4 70.2 127.9 71.6 128.6 72.9 129.3 74.3 130.4 75.7 131.6 77 132.7 78.4 133.6 79.8 134.8 81.1 136.1 82.5 137.1 83.9 138.9 85.2 141.1 86.6 143.2 87.9 145.3 89.3 148 90.7 150 92 152 93.4 154.3 94.8 156.4 96.1 158.3 97.5 159.9 98.9 162.2 100.2 164.2 101.6 166.2 103 167.9 104.3 169.6 105.7 171.2 107 172.7 108.4 174.8 109.8 176.1 111.1 177.5 112.5 178.7 113.9 179.9 115.2 181.1 116.6 182.5 118 183.4 119.3 184.4 120.7 185.2 122 185.9 123.4 186.7 124.8 187.3 126.1 188 127.5 188.7 128.9 189 130.2 189.1 131.6 189.2 133 189.4 134.3 189.1 135.7 189 137 188.7 138.4 188.3 139.8 187.9 141.1 187.5 142.5 186.9 143.9 186.4 145.2 185.9 146.6 185.2 148 184.8 149.3 184.5 150.7 184.4 152.1 184.2 153.4 184.1 154.8 184.1 156.1 184 157.5 183.8 158.9 183.6 160.2 183.4 161.6 183 163 182.7 164.3 182.5 165.7 182.3 167.1 182.2 168.4 182.1 169.8 182.1 171.1 182.1 172.5 182.2 173.9 182.3 175.2 182.6 176.6 182.7 178 183 179.3 183.3 180.7 183.4 182.1 183.6 183.4 183.6 184.8 183.7 186.1 183.7 187.5 183.8 188.9 183.8 190.2 183.8 191.6 183.8 193 183.8 194.3 183.8 195.7 183.8 197.1 183.8 198.4 183.8 199.8 183.8 201.2 183.8 202.5 183.8 203.9 183.8 205.2 183.8 206.6 183.8 208 183.8 209.3 183.8 210.7 183.8 212.1 183.8 213.4 183.8 214.8 183.7 216.2 183.7 217.5 183.7 218.9 183.7 220.2 183.7 221.6 183.7 223 183.7 224.3 183.7 225.7 183.7 227.1 183.7 228.4 183.7 229.8 183.7 231.2 183.7 232.5 183.7 233.9 183.7 235.3 183.7 236.6 183.7 238 183.7 239.3 183.7 240.7 183.7 242.1 183.7 243.4 183.7 244.8 183.7 246.2 183.7 247.5 183.7 248.9 183.7 250.3 183.7 251.6 183.7 253 183.7 254.3 183.7 255.7 183.7 257.1 183.7 258.4 183.7 259.8 183.7 261.2 183.7 262.5 183.7 263.9 183.7 265.3 183.7 266.6 183.7 268 183.7 269.3 183.7 270.7 183.7"/>
          <line class="cls-6" x1="146.6" y1="183.3" x2="146.6" y2="185.2"/>
          <circle class="cls-13" cx="146.6" cy="185.2" r="3.2"/>
          <circle class="cls-4" cx="146.6" cy="185.2" r="3.2"/>
          <line class="cls-6" x1="146.6" y1="183.3" x2="146.6" y2="104"/>
          <circle class="cls-12" cx="146.6" cy="104" r="3.2"/>
          <circle class="cls-4" cx="146.6" cy="104" r="3.2"/>
          <circle class="cls-8" cx="146.6" cy="60.2" r="3.2" transform="translate(46.5 183) rotate(-73.2)"/>
          <circle class="cls-4" cx="146.6" cy="60.2" r="3.2" transform="translate(46.5 183) rotate(-73.2)"/>
        </g>
      </g>
      <g>
        <text class="cls-7" transform="translate(245.9 68.5)"><tspan x="0" y="0">4C-DMBO</tspan></text>
        <text class="cls-9" transform="translate(228.9 58.4)"><tspan x="0" y="0">photo-4C-DMBO</tspan></text>
        <text class="cls-11" transform="translate(224.9 78.6)"><tspan x="0" y="0">triazole 4C-DMBO</tspan></text>
      </g>
      <text class="cls-10" transform="translate(118.4 146.8)"><tspan x="0" y="0">309 nm</tspan></text>
      <g>
        <g class="cls-18">
          <polyline class="cls-3" points="299.2 137.7 300.5 133.8 301.9 125.3 303.3 112.7 304.6 97.9 306 86.6 307.4 76.9 308.7 69.3 310.1 64.8 311.5 61.7 312.8 57 314.2 53.1 315.5 52.3 316.9 51.3 318.3 50.4 319.6 50.8 321 51 322.4 50.5 323.7 49.7 325.1 49.1 326.5 48.9 327.8 48.8 329.2 48.3 330.5 48 331.9 48.2 333.3 49.6 334.6 50.6 336 51.4 337.4 52.4 338.7 53.9 340.1 56.2 341.5 59.4 342.8 65.4 344.2 71.9 345.5 78 346.9 82.7 348.3 86.4 349.6 89.1 351 90.9 352.4 91.7 353.7 92 355.1 92.4 356.5 92.6 357.8 93 359.2 93.5 360.6 94.5 361.9 95.1 363.3 95.5 364.6 96.1 366 97.3 367.4 99.4 368.7 102.9 370.1 108.5 371.5 112.9 372.8 117.1 374.2 121 375.6 124.3 376.9 126.3 378.3 127.3 379.6 128 381 128.7 382.4 129.5 383.7 130.7 385.1 132 386.5 133.3 387.8 133.8 389.2 133.5 390.6 132.7 391.9 131.4 393.3 129.5 394.6 126.7 396 123.9 397.4 120.4 398.7 117.6 400.1 114.6 401.5 111.4 402.8 108.6 404.2 106.3 405.6 104.4 406.9 102.4 408.3 100.7 409.7 98.7 411 96.7 412.4 94.6 413.7 92.2 415.1 89.1 416.5 84.9 417.8 81.7 419.2 78.2 420.6 74.7 421.9 72 423.3 70.9 424.7 72 426 74.5 427.4 78.1 428.7 81.9 430.1 85.4 431.5 88.3 432.8 91 434.2 93.7 435.6 95.2 436.9 96.3 438.3 96.6 439.7 96 441 94.3 442.4 90.9 443.7 87.4 445.1 84 446.5 82 447.8 82.7 449.2 87 450.6 94.4 451.9 106.7 453.3 118.8 454.7 130.1 456 139.4 457.4 147.5 458.8 154.6 460.1 162.4 461.5 167.3 462.8 170.9 464.2 173.7 465.6 175.9 466.9 177.7 468.3 179.2 469.7 180 471 180.6 472.4 181.1 473.8 181.5 475.1 181.9 476.5 182.1 477.8 182.3 479.2 182.5 480.6 182.6 481.9 182.7 483.3 182.7 484.7 182.8 486 182.8 487.4 182.9 488.8 182.9 490.1 182.9 491.5 183 492.9 183 494.2 183.1 495.6 183.1 496.9 183.1 498.3 183.1 499.7 183.2 501 183.2 502.4 183.2 503.8 183.2 505.1 183.2 506.5 183.2 507.9 183.2 509.2 183.2 510.6 183.2 511.9 183.2 513.3 183.2 514.7 183.2 516 183.2 517.4 183.2 518.8 183.2 520.1 183.2 521.5 183.2 522.9 183.2 524.2 183.2 525.6 183.2 526.9 183.2 528.3 183.2 529.7 183.2 531 183.2 532.4 183.2 533.8 183.2 535.1 183.3 536.5 183.2 537.9 183.2 539.2 183.2 540.6 183.2 542 183.2 543.3 183.2 544.7 183.3 546 183.3 547.4 183.3 548.8 183.3 550.1 183.3 551.5 183.3 552.9 183.3 554.2 183.3 555.6 183.3 557 183.3 558.3 183.3 559.7 183.3 561 183.3 562.4 183.3 563.8 183.3 565.1 183.3 566.5 183.3 567.9 183.3 569.2 183.3 570.6 183.3 572 183.3"/>
        </g>
        <g class="cls-22">
          <line class="cls-4" x1="367.4" y1="183.3" x2="572" y2="183.3"/>
          <line class="cls-4" x1="367.4" y1="183.3" x2="367.4" y2="187.6"/>
          <line class="cls-4" x1="435.6" y1="183.3" x2="435.6" y2="187.6"/>
          <line class="cls-4" x1="503.8" y1="183.3" x2="503.8" y2="187.6"/>
          <line class="cls-4" x1="572" y1="183.3" x2="572" y2="187.6"/>
          <text class="cls-10" transform="translate(361.4 198.7)"><tspan x="0" y="0">250</tspan></text>
          <text class="cls-10" transform="translate(429.6 198.7)"><tspan x="0" y="0">300</tspan></text>
          <text class="cls-10" transform="translate(497.8 198.7)"><tspan x="0" y="0">350</tspan></text>
          <text class="cls-10" transform="translate(566 198.7)"><tspan x="0" y="0">400</tspan></text>
          <line class="cls-4" x1="359.2" y1="166" x2="359.2" y2="61"/>
          <line class="cls-4" x1="359.2" y1="166" x2="354.9" y2="166"/>
          <line class="cls-4" x1="359.2" y1="148.5" x2="354.9" y2="148.5"/>
          <line class="cls-4" x1="359.2" y1="131" x2="354.9" y2="131"/>
          <line class="cls-4" x1="359.2" y1="113.5" x2="354.9" y2="113.5"/>
          <line class="cls-4" x1="359.2" y1="96" x2="354.9" y2="96"/>
          <line class="cls-4" x1="359.2" y1="78.5" x2="354.9" y2="78.5"/>
          <line class="cls-4" x1="359.2" y1="61" x2="354.9" y2="61"/>
          <text class="cls-10" transform="translate(340.7 168.6)"><tspan x="0" y="0">0.2</tspan></text>
          <text class="cls-10" transform="translate(340.7 151.1)"><tspan x="0" y="0">0.4</tspan></text>
          <text class="cls-10" transform="translate(340.7 133.6)"><tspan x="0" y="0">0.6</tspan></text>
          <text class="cls-10" transform="translate(340.7 116.1)"><tspan x="0" y="0">0.8</tspan></text>
          <text class="cls-10" transform="translate(340.7 98.6)"><tspan x="0" y="0">1.0</tspan></text>
          <text class="cls-10" transform="translate(340.7 81.1)"><tspan x="0" y="0">1.2</tspan></text>
          <text class="cls-10" transform="translate(340.7 63.6)"><tspan x="0" y="0">1.4</tspan></text>
          <g>
            <rect class="cls-23" x="359.2" y="48" width="221" height="135.3"/>
            <rect class="cls-4" x="359.2" y="48" width="221" height="135.3"/>
          </g>
        </g>
        <g class="cls-21">
          <text class="cls-15" transform="translate(455.9 33.5)"><tspan x="0" y="0">ADIBO</tspan></text>
          <text class="cls-10" transform="translate(442.5 215.8)"><tspan x="0" y="0">Wavelength (nm)</tspan></text>
          <text class="cls-10" transform="translate(331.8 143) rotate(-90)"><tspan x="0" y="0">Absorbance (AU)</tspan></text>
        </g>
        <g class="cls-20">
          <polyline class="cls-5" points="299.2 145.7 300.5 139.8 301.9 130.9 303.3 121 304.6 105.9 306 94.3 307.4 85.3 308.7 76.5 310.1 68.1 311.5 62.2 312.8 57.1 314.2 49.6 315.5 48.2 316.9 48.6 318.3 46.2 319.6 42.5 321 40.4 322.4 38.6 323.7 32.4 325.1 27.5 326.5 22.4 327.8 16.5 329.2 11.2 330.5 6.9 331.9 2.3 333.3 -4.7 334.6 -10.8 336 -18.5 337.4 -25.7 338.7 -29.2 340.1 -28.2 341.5 -22 342.8 -6.2 344.2 10.3 345.5 26.3 346.9 41.3 348.3 55.1 349.6 67.8 351 79.4 352.4 92.7 353.7 101.9 355.1 109.2 356.5 114.4 357.8 118.4 359.2 122 360.6 126.7 361.9 130 363.3 132.4 364.6 133.9 366 135.2 367.4 136.4 368.7 137.5 370.1 138.6 371.5 139.2 372.8 139.5 374.2 139.7 375.6 139.9 376.9 139.9 378.3 139.8 379.6 139.5 381 139.4 382.4 139.3 383.7 139.1 385.1 139 386.5 138.8 387.8 138.7 389.2 138.5 390.6 138.3 391.9 138.3 393.3 138.2 394.6 138.2 396 138.2 397.4 138.3 398.7 138.5 400.1 138.7 401.5 138.9 402.8 139.2 404.2 139.5 405.6 139.9 406.9 140.5 408.3 141 409.7 141.6 411 142.2 412.4 142.9 413.7 143.6 415.1 144.3 416.5 145.3 417.8 146.1 419.2 147 420.6 147.8 421.9 148.8 423.3 149.8 424.7 151 426 152 427.4 153 428.7 154.1 430.1 155 431.5 156 432.8 156.9 434.2 158.2 435.6 159.1 436.9 160.2 438.3 161.2 439.7 162.3 441 163.2 442.4 164.5 443.7 165.4 445.1 166.4 446.5 167.3 447.8 168.1 449.2 169 450.6 169.8 451.9 170.9 453.3 171.8 454.7 172.6 456 173.3 457.4 174 458.8 174.6 460.1 175.4 461.5 175.9 462.8 176.5 464.2 176.9 465.6 177.3 466.9 177.8 468.3 178.3 469.7 178.6 471 178.8 472.4 179.2 473.8 179.4 475.1 179.7 476.5 180 477.8 180.2 479.2 180.5 480.6 180.7 481.9 180.8 483.3 181 484.7 181.1 486 181.4 487.4 181.5 488.8 181.6 490.1 181.7 491.5 181.8 492.9 182 494.2 182.1 495.6 182.2 496.9 182.2 498.3 182.3 499.7 182.4 501 182.4 502.4 182.5 503.8 182.6 505.1 182.7 506.5 182.7 507.9 182.8 509.2 182.8 510.6 182.9 511.9 182.9 513.3 182.9 514.7 182.9 516 182.9 517.4 182.9 518.8 183 520.1 183 521.5 183 522.9 183.1 524.2 183.1 525.6 183.1 526.9 183.1 528.3 183.1 529.7 183.1 531 183.2 532.4 183.2 533.8 183.2 535.1 183.2 536.5 183.2 537.9 183.2 539.2 183.2 540.6 183.2 542 183.2 543.3 183.3 544.7 183.3 546 183.3 547.4 183.3 548.8 183.3 550.1 183.3 551.5 183.3 552.9 183.3 554.2 183.3 555.6 183.3 557 183.3 558.3 183.3 559.7 183.3 561 183.3 562.4 183.3 563.8 183.4 565.1 183.4 566.5 183.3 567.9 183.3 569.2 183.3 570.6 183.3 572 183.3"/>
          <line class="cls-6" x1="447.8" y1="183.6" x2="447.8" y2="82.7"/>
          <circle class="cls-8" cx="447.8" cy="82.7" r="3.2"/>
          <circle class="cls-4" cx="447.8" cy="82.7" r="3.2"/>
          <line class="cls-6" x1="447.8" y1="183.6" x2="447.8" y2="168.1"/>
          <circle class="cls-13" cx="447.8" cy="168.1" r="3.2"/>
          <circle class="cls-4" cx="447.8" cy="168.1" r="3.2"/>
        </g>
      </g>
    </g>
  </g>
</svg>