<?xml version="1.0" encoding="UTF-8"?>
<svg xmlns="http://www.w3.org/2000/svg" xmlns:xlink="http://www.w3.org/1999/xlink" version="1.1" viewBox="0 0 319.1 196.8">
  <defs>
    <style>
      .cls-1, .cls-2, .cls-3, .cls-4, .cls-5, .cls-6 {
        fill: none;
      }

      .cls-7, .cls-8 {
        fill: #3e50f7;
      }

      .cls-7, .cls-9, .cls-10 {
        font-family: ArialMT, Arial;
        font-size: 6px;
      }

      .cls-2 {
        stroke: #000;
        stroke-linecap: round;
      }

      .cls-2, .cls-3, .cls-4, .cls-5, .cls-11, .cls-12, .cls-6 {
        stroke-miterlimit: 10;
      }

      .cls-2, .cls-6 {
        stroke-width: .4px;
      }

      .cls-3 {
        stroke: #424242;
        stroke-width: .4px;
      }

      .cls-13 {
        fill: #e6e6e6;
      }

      .cls-4 {
        stroke: #3e50f7;
      }

      .cls-4, .cls-5 {
        stroke-width: .7px;
      }

      .cls-5 {
        stroke: #9100f9;
      }

      .cls-14, .cls-9 {
        fill: #9100f9;
      }

      .cls-15 {
        fill: #ff2600;
      }

      .cls-16 {
        fill: #ccc;
      }

      .cls-17 {
        clip-path: url(#clippath-1);
      }

      .cls-18 {
        clip-path: url(#clippath-3);
      }

      .cls-19 {
        clip-path: url(#clippath-4);
      }

      .cls-20 {
        clip-path: url(#clippath-2);
      }

      .cls-21 {
        clip-path: url(#clippath-5);
      }

      .cls-22 {
        fill: #fff;
      }

      .cls-23 {
        fill: #9f55ff;
      }

      .cls-24 {
        fill: silver;
      }

      .cls-25 {
        fill: #b3b3b3;
      }

      .cls-11 {
        stroke-width: .5px;
      }

      .cls-11, .cls-12 {
        fill: #f2f2f2;
        stroke: #919191;
      }

      .cls-12 {
        stroke-width: .5px;
      }

      .cls-26 {
        fill: #557eff;
      }

      .cls-6 {
        stroke: #2b2a00;
      }

      .cls-27 {
        clip-path: url(#clippath);
      }
    </style>
    <clipPath id="clippath">
      <rect class="cls-1" x="216.6" y="107.8" width="17" height="20.4"/>
    </clipPath>
    <clipPath id="clippath-1">
      <rect class="cls-1" x="216.6" y="107.8" width="17" height="20.4"/>
    </clipPath>
    <clipPath id="clippath-2">
      <rect class="cls-1" x="216.6" y="107.8" width="17" height="20.4"/>
    </clipPath>
    <clipPath id="clippath-3">
      <rect class="cls-1" x="18.8" y="10.3" width="17" height="20.4"/>
    </clipPath>
    <clipPath id="clippath-4">
      <rect class="cls-1" x="18.8" y="10.3" width="17" height="20.4"/>
    </clipPath>
    <clipPath id="clippath-5">
      <rect class="cls-1" x="18.8" y="10.3" width="17" height="20.4"/>
    </clipPath>
  </defs>
  <!-- Generator: Adobe Illustrator 28.7.8, SVG Export Plug-In . SVG Version: 1.2.0 Build 200)  -->
  <g>
    <g id="Layer_1">
      <circle class="cls-12" cx="98.9" cy="136" r="21.1"/>
      <polygon class="cls-22" points="99.4 132.1 95.3 139.9 103.6 139.9 99.4 132.1"/>
      <ellipse class="cls-11" cx="66.6" cy="59.7" rx="37" ry="47.5"/>
      <g class="cls-27">
        <g class="cls-17">
          <g class="cls-20">
            <g>
              <path class="cls-13" d="M226,127.1c0,.5-.4,1-1,1s-1-.4-1-1,.4-1,1-1,1,.4,1,1Z"/>
              <path class="cls-14" d="M225.3,111.7c0,0-.1,0-.2,0s-.1,0-.2,0c-3.5.1-6.1,3.9-4.6,7.1h0c.8,1.6,1.9,1.2,1.9,2.8v1.1h5.7v-1.2c0-1.6,1-1.3,1.8-2.6v-.2c1.6-3.2-.9-6.9-4.4-7.1Z"/>
              <path class="cls-23" d="M225.3,111.7c0,0-.1,0-.2,0s-.1,0-.2,0c-1.5,0-2.9.8-3.8,1.9.9-.7,1.9-1.2,3.1-1.2,0,0,.1,0,.2,0s.1,0,.2,0c3.5.1,6,3.9,4.5,7.1v.2c-.1.1-.2.2-.3.3.3-.2.6-.5.9-1v-.2c1.6-3.2-.9-6.9-4.4-7.1Z"/>
              <path class="cls-3" d="M225.6,122.3c-.1-.9-.2-1.8-.2-2.7,0-.9.2-1.8.7-2.6.1-.2.2-.4.4-.5.3-.2.8-.2,1.1,0,.3.2.4.7.3,1-.1.4-.5.6-.8.8-.7.3-3.6.3-4.3,0-.3-.2-.7-.4-.8-.8-.1-.4,0-.8.3-1,.3-.2.8-.2,1.1,0,.2.1.3.3.4.5.4.8.6,1.7.7,2.6,0,.9,0,1.8-.2,2.7"/>
              <path class="cls-16" d="M227.1,127.1h-4.1c-.3,0-.8-.3-.8-.6h0v-4.1c0-.2.2-.4.4-.4h4.9c.2,0,.4.2.4.4v4.1h0c0,.3-.5.6-.8.6Z"/>
              <path class="cls-13" d="M228,122.7l-6.1.7c-.3,0-.5-.2-.5-.4h0c0-.4.2-.6.4-.6l6.1-.7c.3,0,.5.2.5.4h0c0,.4-.2.6-.4.6Z"/>
              <path class="cls-13" d="M228.2,124.4l-6.1.7c-.3,0-.5-.2-.5-.4h0c0-.4.2-.6.4-.6l6.1-.7c.3,0,.5.2.5.4h0c0,.4-.2.6-.4.6Z"/>
              <path class="cls-13" d="M228.4,126.2l-6.1.7c-.3,0-.5-.2-.5-.4h0c0-.4.2-.6.4-.6l6.1-.7c.3,0,.5.2.5.4h0c0,.4-.2.6-.4.6Z"/>
              <path class="cls-25" d="M222.2,125.2v.3l5.7-.7v-.3l-5.7.7Z"/>
              <path class="cls-25" d="M227.9,122.7l-5.7.7v.3l5.7-.7s0,0,0,0v-.3s0,0,0,0Z"/>
              <path class="cls-25" d="M222.4,126.9c.2.1.4.2.6.2h.2l4.7-.6h0v-.3l-5.5.7Z"/>
              <path class="cls-5" d="M218.6,122l1.5-1.3"/>
              <path class="cls-5" d="M218.6,122l1.5-1.3"/>
              <path class="cls-5" d="M216.9,118.7l1.9-.5"/>
              <path class="cls-5" d="M216.9,118.7l1.9-.5"/>
              <path class="cls-5" d="M216.8,115l1.9.4"/>
              <path class="cls-5" d="M216.8,115l1.9.4"/>
              <path class="cls-5" d="M218.2,111.5l1.6,1.2"/>
              <path class="cls-5" d="M218.2,111.5l1.6,1.2"/>
              <path class="cls-5" d="M221.1,109.1l.9,1.7"/>
              <path class="cls-5" d="M221.1,109.1l.9,1.7"/>
              <path class="cls-5" d="M224.7,108.1v2"/>
              <path class="cls-5" d="M224.7,108.1v2"/>
              <path class="cls-5" d="M228.3,108.8l-.8,1.8"/>
              <path class="cls-5" d="M228.3,108.8l-.8,1.8"/>
              <path class="cls-5" d="M231.4,110.9l-1.5,1.3"/>
              <path class="cls-5" d="M231.4,110.9l-1.5,1.3"/>
              <path class="cls-5" d="M233.2,114.2l-1.9.5"/>
              <path class="cls-5" d="M233.2,114.2l-1.9.5"/>
              <path class="cls-5" d="M233.3,118l-1.9-.5"/>
              <path class="cls-5" d="M233.3,118l-1.9-.5"/>
              <path class="cls-5" d="M232,121.3l-1.7-.9"/>
              <path class="cls-5" d="M232,121.3l-1.7-.9"/>
            </g>
          </g>
        </g>
      </g>
      <g class="cls-18">
        <g class="cls-19">
          <g class="cls-21">
            <g>
              <path class="cls-13" d="M28.2,29.5c0,.5-.4,1-1,1s-1-.4-1-1,.4-1,1-1,1,.4,1,1Z"/>
              <path class="cls-8" d="M27.5,14.1c0,0-.1,0-.2,0s-.1,0-.2,0c-3.5.1-6.1,3.9-4.6,7.1h0c.8,1.6,1.9,1.2,1.9,2.8v1.1h5.7v-1.2c0-1.6,1-1.3,1.8-2.6v-.2c1.6-3.2-.9-6.9-4.4-7.1Z"/>
              <path class="cls-26" d="M27.5,14.1c0,0-.1,0-.2,0s-.1,0-.2,0c-1.5,0-2.9.8-3.8,1.9.9-.7,1.9-1.2,3.1-1.2,0,0,.1,0,.2,0s.1,0,.2,0c3.5.1,6,3.9,4.5,7.1v.2c-.1.1-.2.2-.3.3.3-.2.6-.5.9-1v-.2c1.6-3.2-.9-6.9-4.4-7.1Z"/>
              <path class="cls-3" d="M27.8,24.8c-.1-.9-.2-1.8-.2-2.7,0-.9.2-1.8.7-2.6.1-.2.2-.4.4-.5.3-.2.8-.2,1.1,0,.3.2.4.7.3,1-.1.4-.5.6-.8.8-.7.3-3.6.3-4.3,0-.3-.2-.7-.4-.8-.8-.1-.4,0-.8.3-1,.3-.2.8-.2,1.1,0,.2.1.3.3.4.5.4.8.6,1.7.7,2.6,0,.9,0,1.8-.2,2.7"/>
              <path class="cls-16" d="M29.3,29.5h-4.1c-.3,0-.8-.3-.8-.6h0v-4.1c0-.2.2-.4.4-.4h4.9c.2,0,.4.2.4.4v4.1h0c0,.3-.5.6-.8.6Z"/>
              <path class="cls-13" d="M30.2,25.2l-6.1.7c-.3,0-.5-.2-.5-.4h0c0-.4.2-.6.4-.6l6.1-.7c.3,0,.5.2.5.4h0c0,.4-.2.6-.4.6Z"/>
              <path class="cls-13" d="M30.4,26.9l-6.1.7c-.3,0-.5-.2-.5-.4h0c0-.4.2-.6.4-.6l6.1-.7c.3,0,.5.2.5.4h0c0,.4-.2.6-.4.6Z"/>
              <path class="cls-13" d="M30.6,28.6l-6.1.7c-.3,0-.5-.2-.5-.4h0c0-.4.2-.6.4-.6l6.1-.7c.3,0,.5.2.5.4h0c0,.4-.2.6-.4.6Z"/>
              <path class="cls-25" d="M24.4,27.6v.3l5.7-.7v-.3l-5.7.7Z"/>
              <path class="cls-25" d="M30.1,25.2l-5.7.7v.3l5.7-.7s0,0,0,0v-.3s0,0,0,0Z"/>
              <path class="cls-25" d="M24.6,29.3c.2.1.4.2.6.2h.2l4.7-.6h0v-.3l-5.5.7Z"/>
              <path class="cls-4" d="M20.8,24.5l1.5-1.3"/>
              <path class="cls-4" d="M20.8,24.5l1.5-1.3"/>
              <path class="cls-4" d="M19.1,21.2l1.9-.5"/>
              <path class="cls-4" d="M19.1,21.2l1.9-.5"/>
              <path class="cls-4" d="M19,17.4l1.9.4"/>
              <path class="cls-4" d="M19,17.4l1.9.4"/>
              <path class="cls-4" d="M20.4,14l1.6,1.2"/>
              <path class="cls-4" d="M20.4,14l1.6,1.2"/>
              <path class="cls-4" d="M23.3,11.5l.9,1.7"/>
              <path class="cls-4" d="M23.3,11.5l.9,1.7"/>
              <path class="cls-4" d="M26.9,10.5v2"/>
              <path class="cls-4" d="M26.9,10.5v2"/>
              <path class="cls-4" d="M30.5,11.2l-.8,1.8"/>
              <path class="cls-4" d="M30.5,11.2l-.8,1.8"/>
              <path class="cls-4" d="M33.6,13.4l-1.5,1.3"/>
              <path class="cls-4" d="M33.6,13.4l-1.5,1.3"/>
              <path class="cls-4" d="M35.4,16.7l-1.9.5"/>
              <path class="cls-4" d="M35.4,16.7l-1.9.5"/>
              <path class="cls-4" d="M35.5,20.5l-1.9-.5"/>
              <path class="cls-4" d="M35.5,20.5l-1.9-.5"/>
              <path class="cls-4" d="M34.2,23.8l-1.7-.9"/>
              <path class="cls-4" d="M34.2,23.8l-1.7-.9"/>
            </g>
          </g>
        </g>
      </g>
      <text class="cls-7" transform="translate(11.6 90.4)"><tspan x="0" y="0">465 nm</tspan></text>
      <text class="cls-9" transform="translate(215.7 186.8)"><tspan x="0" y="0">365 nm</tspan></text>
      <polygon class="cls-22" points="58.9 28.4 58.9 37.1 66.3 41.4 73.8 37.1 73.8 28.4 66.3 24.1 58.9 28.4"/>
      <polygon class="cls-22" points="81.3 41.4 81.3 50 88.8 54.3 96.3 50 96.3 41.4 88.8 37.1 81.3 41.4"/>
      <polygon class="cls-22" points="81.5 63.6 81.5 72.3 89 76.6 96.5 72.3 96.5 63.6 89 59.3 81.5 63.6"/>
      <polygon class="cls-22" points="74 76.6 66.6 72.3 59.1 76.6 59.1 85.2 66.6 89.6 74 85.2 74 76.6"/>
      <polygon class="cls-22" points="37.6 39.2 37.6 47.9 45.1 52.2 52.6 47.9 52.6 39.2 45.1 34.9 37.6 39.2"/>
      <polygon class="cls-22" points="45.1 60.8 37.6 65.2 37.6 73.8 45.1 78.1 52.6 73.8 52.6 65.2 45.1 60.8"/>
      <rect class="cls-24" x="144.5" y="59.9" width="8.6" height="8.6"/>
      <rect class="cls-24" x="163.3" y="145.9" width="8.6" height="8.6"/>
      <rect class="cls-24" x="279.9" y="144.4" width="8.6" height="8.6"/>
      <text class="cls-10" transform="translate(64.2 43.5)"><tspan x="0" y="0">N</tspan></text>
      <polygon points="58.7 28.3 59 28.5 59 37 58.7 37.2 58.7 28.3"/>
      <polygon points="58.7 37.2 59 37 63.3 39.4 63.2 39.8 58.7 37.2"/>
      <rect x="62" y="35.1" width=".4" height="4.2" transform="translate(-1.1 72.5) rotate(-60)"/>
      <polygon points="69.4 39.8 69.2 39.5 73.6 37 73.8 37.1 73.8 37.3 69.4 39.8"/>
      <polygon points="74 37 73.8 37.1 73.6 37 73.6 28.5 74 28.3 74 37"/>
      <rect x="72.1" y="29.3" width=".4" height="6.8"/>
      <polygon points="74 28.3 73.6 28.5 66.3 24.3 66.3 23.9 74 28.3"/>
      <polygon points="66.3 23.9 66.3 24.3 59 28.5 58.7 28.3 66.3 23.9"/>
      <rect x="60" y="27.4" width="6.8" height=".4" transform="translate(-5.3 35.4) rotate(-30)"/>
      <text class="cls-10" transform="translate(65.8 59.1)"><tspan x="0" y="0">Ir</tspan></text>
      <rect x="66.3" y="44.5" width=".4" height="9.3" transform="translate(-.8 1.1) rotate(-.9)"/>
      <polygon points="73.8 37.3 73.8 37.1 74 37 81.3 41.2 81.3 41.4 81.1 41.5 73.8 37.3"/>
      <polygon points="81.1 41.5 81.3 41.4 81.5 41.5 81.5 49.9 81.1 50.1 81.1 41.5"/>
      <rect x="82.7" y="42.3" width=".4" height="6.8"/>
      <polygon points="81.1 50.1 81.5 49.9 88.8 54.1 88.8 54.5 81.1 50.1"/>
      <polygon points="88.8 54.5 88.8 54.1 96.1 49.9 96.4 50.1 88.8 54.5"/>
      <rect x="88.3" y="50.7" width="6.8" height=".4" transform="translate(-13.1 52.7) rotate(-30)"/>
      <polygon points="96.4 50.1 96.1 49.9 96.1 41.5 96.4 41.3 96.4 50.1"/>
      <polygon points="96.4 41.3 96.1 41.5 88.8 37.3 88.8 36.9 96.4 41.3"/>
      <rect x="91.6" y="37.1" width=".4" height="6.8" transform="translate(10.7 99.7) rotate(-60)"/>
      <polygon points="88.8 36.9 88.8 37.3 81.5 41.5 81.3 41.4 81.3 41.2 88.8 36.9"/>
      <polygon points="79.6 49.8 80.3 51.5 80 51.6 79.2 50 79.6 49.8"/>
      <polygon points="78 50.7 78.7 52.1 78.4 52.2 77.7 50.9 78 50.7"/>
      <polygon points="76.5 51.5 77.1 52.7 76.7 52.9 76.2 51.7 76.5 51.5"/>
      <polygon points="75 52.4 75.5 53.4 75.1 53.5 74.7 52.6 75 52.4"/>
      <polygon points="73.5 53.2 73.8 54 73.5 54.1 73.2 53.4 73.5 53.2"/>
      <polygon points="71.9 54.1 72.2 54.6 71.9 54.8 71.6 54.2 71.9 54.1"/>
      <polygon points="70.4 54.9 70.6 55.3 70.3 55.4 70.1 55.1 70.4 54.9"/>
      <text class="cls-10" transform="translate(79.4 65.8)"><tspan x="0" y="0">N</tspan></text>
      <polygon points="81.3 66.7 81.7 66.7 81.7 72.2 81.5 72.3 81.3 72.2 81.3 66.7"/>
      <polygon points="81.5 72.5 81.5 72.3 81.7 72.2 89 76.4 89 76.8 81.5 72.5"/>
      <rect x="85.9" y="69.7" width=".4" height="6.8" transform="translate(-20.3 111.1) rotate(-60)"/>
      <polygon points="89 76.8 89 76.4 96.3 72.2 96.7 72.4 89 76.8"/>
      <polygon points="96.7 72.4 96.3 72.2 96.3 63.7 96.7 63.5 96.7 72.4"/>
      <rect x="94.8" y="64.5" width=".4" height="6.8"/>
      <polygon points="96.7 63.5 96.3 63.7 89 59.5 89 59.1 96.7 63.5"/>
      <polygon points="89 59.1 89 59.5 84.6 62.1 84.4 61.7 89 59.1"/>
      <rect x="85" y="62" width="4.3" height=".4" transform="translate(-19.4 51.9) rotate(-30)"/>
      <polygon points="69.8 57.7 70 57.4 78.8 61.2 78 62.8 69.8 57.7"/>
      <polygon points="81.3 72.2 81.5 72.3 81.5 72.5 74.2 76.7 74 76.6 74 76.4 81.3 72.2"/>
      <polygon points="74 76.4 74 76.6 73.9 76.7 66.6 72.5 66.6 72.3 66.7 72.2 74 76.4"/>
      <rect x="69.3" y="72.4" width=".4" height="6.8" transform="translate(-30.9 98.1) rotate(-60)"/>
      <polygon points="66.4 72.2 66.6 72.3 66.6 72.5 59.3 76.7 58.9 76.5 66.4 72.2"/>
      <polygon points="58.9 76.5 59.3 76.7 59.3 85.1 58.9 85.3 58.9 76.5"/>
      <rect x="60.5" y="77.5" width=".4" height="6.8"/>
      <polygon points="58.9 85.3 59.3 85.1 66.6 89.3 66.6 89.8 58.9 85.3"/>
      <polygon points="66.6 89.8 66.6 89.3 73.9 85.1 74.2 85.3 66.6 89.8"/>
      <rect x="66.1" y="85.9" width="6.8" height=".4" transform="translate(-33.7 46.3) rotate(-30)"/>
      <polygon points="74.2 85.3 73.9 85.1 73.9 76.7 74 76.6 74.2 76.7 74.2 85.3"/>
      <polygon points="66.7 72.2 66.6 72.3 66.4 72.2 66.4 60 66.8 60 66.7 72.2"/>
      <polygon points="37.5 39.1 37.8 39.4 37.8 47.8 37.5 48 37.5 39.1"/>
      <rect x="39" y="40.1" width=".4" height="6.8"/>
      <polygon points="37.5 48 37.8 47.8 45.1 52 45.1 52.2 44.9 52.3 37.5 48"/>
      <polygon points="45.3 52.3 45.1 52.2 45.1 52 52.4 47.8 52.8 48 45.3 52.3"/>
      <rect x="44.7" y="48.5" width="6.8" height=".4" transform="translate(-17.9 30.6) rotate(-30)"/>
      <polygon points="52.8 48 52.4 47.8 52.4 39.4 52.8 39.1 52.8 48"/>
      <polygon points="52.8 39.1 52.4 39.4 45.1 35.1 45.1 34.7 52.8 39.1"/>
      <rect x="47.9" y="35" width=".4" height="6.8" transform="translate(-9.2 60.9) rotate(-60)"/>
      <polygon points="45.1 34.7 45.1 35.1 37.8 39.4 37.5 39.1 45.1 34.7"/>
      <polygon points="44.9 52.3 45.1 52.2 45.3 52.3 45.3 60.7 45.1 60.8 44.9 60.7 44.9 52.3"/>
      <text class="cls-10" transform="translate(50.4 67.3)"><tspan x="0" y="0">N</tspan></text>
      <polygon points="44.9 60.7 45.1 60.8 45.1 61.1 37.8 65.3 37.5 65.1 44.9 60.7"/>
      <rect x="38.7" y="64.2" width="6.8" height=".4" transform="translate(-26.5 29.7) rotate(-30)"/>
      <polygon points="37.5 65.1 37.8 65.3 37.8 73.7 37.5 73.9 37.5 65.1"/>
      <polygon points="37.5 73.9 37.8 73.7 45.1 77.9 45.1 78.3 37.5 73.9"/>
      <rect x="42" y="71.2" width=".4" height="6.8" transform="translate(-43.5 73.8) rotate(-60)"/>
      <polygon points="45.1 78.3 45.1 77.9 52.4 73.7 52.8 73.9 45.1 78.3"/>
      <polygon points="52.8 73.9 52.4 73.7 52.4 68.3 52.8 68.3 52.8 73.9"/>
      <rect x="50.9" y="68.3" width=".4" height="4.6"/>
      <polygon points="49.6 63.2 49.4 63.5 45.1 61.1 45.1 60.8 45.3 60.7 49.6 63.2"/>
      <polygon points="64.8 57.8 65 58.1 56.1 64.2 55.1 62.6 64.8 57.8"/>
      <polygon points="53.4 49.5 54.4 47.9 54.6 48.2 53.7 49.6 53.4 49.5"/>
      <polygon points="54.8 50.3 55.6 48.9 55.9 49.1 55.1 50.4 54.8 50.3"/>
      <polygon points="56.1 51 56.9 49.8 57.2 50 56.5 51.2 56.1 51"/>
      <polygon points="57.5 51.8 58.2 50.8 58.5 51 57.8 52 57.5 51.8"/>
      <polygon points="58.9 52.6 59.5 51.7 59.8 51.9 59.2 52.8 58.9 52.6"/>
      <polygon points="60.3 53.4 60.8 52.6 61.1 52.9 60.6 53.6 60.3 53.4"/>
      <polygon points="61.7 54.2 62.1 53.6 62.4 53.8 62 54.4 61.7 54.2"/>
      <polygon points="63.1 55 63.4 54.5 63.7 54.7 63.4 55.2 63.1 55"/>
      <polygon points="64.5 55.8 64.7 55.5 65 55.7 64.8 56 64.5 55.8"/>
      <polygon points="128.7 42 128.9 41.7 137.3 41.7 137.5 42 128.7 42"/>
      <rect x="129.7" y="40.1" width="6.8" height=".4"/>
      <polygon points="137.5 42 137.3 41.7 141.5 34.4 141.9 34.4 137.5 42"/>
      <polygon points="141.9 34.4 141.5 34.4 137.3 27.1 137.4 26.9 137.6 26.9 141.9 34.4"/>
      <rect x="138" y="28" width=".4" height="6.8" transform="translate(2.8 73.3) rotate(-30)"/>
      <polygon points="137.3 26.7 137.4 26.9 137.3 27.1 128.9 27.1 128.7 26.7 137.3 26.7"/>
      <polygon points="128.7 26.7 128.9 27.1 124.6 34.4 124.2 34.4 128.7 26.7"/>
      <rect x="124.5" y="31.2" width="6.8" height=".4" transform="translate(36.8 126.5) rotate(-60)"/>
      <polygon points="124.2 34.4 124.6 34.4 128.9 41.7 128.7 42 124.2 34.4"/>
      <polygon points="137.6 26.9 137.4 26.9 137.3 26.7 141.6 19.2 141.8 19.6 137.6 26.9"/>
      <polygon points="141.8 19.6 141.6 19.2 150.4 19.2 150.4 19.6 141.8 19.6"/>
      <rect x="142.6" y="20.8" width="7.7" height=".4"/>
      <path class="cls-2" d="M122.1,39.8c-9.7,0-17.6,7.9-17.6,17.6s6.8,16.3,15.1,17.5"/>
      <path d="M122.1,75.1l-3,.5s.4-.4.4-.7c0-.3-.3-.8-.3-.8l2.8,1Z"/>
      <text class="cls-10" transform="translate(143.1 43.4)"><tspan x="0" y="0">Styrene</tspan></text>
      <text class="cls-10" transform="translate(56.4 100.4)"><tspan x="0" y="0">Ir(ppy)</tspan></text>
      <text class="cls-10" transform="translate(73.7 102.4) scale(.6)"><tspan x="0" y="0">3</tspan></text>
      <polygon points="126.1 87 126.3 86.7 134.5 88.9 134.6 89.3 126.1 87"/>
      <polygon points="134.6 89.3 134.5 88.9 140.5 82.9 140.9 83 134.6 89.3"/>
      <rect x="133.1" y="84.8" width="6.8" height=".4" transform="translate(-20.1 121.4) rotate(-45)"/>
      <polygon points="140.9 83 140.5 82.9 138.3 74.8 138.4 74.6 138.6 74.7 140.9 83"/>
      <polygon points="138.4 74.4 138.4 74.6 138.3 74.8 130.1 72.6 130 72.2 138.4 74.4"/>
      <rect x="133.7" y="71.6" width=".4" height="6.8" transform="translate(26.7 184.9) rotate(-75)"/>
      <polygon points="130 72.2 130.1 72.6 124.2 78.6 123.8 78.5 130 72.2"/>
      <polygon points="123.8 78.5 124.2 78.6 126.3 86.7 126.1 87 123.8 78.5"/>
      <rect x="126.4" y="78.9" width=".4" height="6.8" transform="translate(-17 35.6) rotate(-15)"/>
      <polygon points="138.6 74.7 138.4 74.6 138.4 74.4 144.3 68.5 144.5 68.5 144.6 68.7 138.6 74.7"/>
      <polygon points="144.6 68.7 144.5 68.5 144.7 68.4 153 68.4 153.2 68.5 153.1 68.7 144.6 68.7"/>
      <polygon points="153.3 68.5 153.2 68.5 153 68.4 153 60.1 153.3 59.7 153.3 68.5"/>
      <polygon points="153.3 59.7 153 60.1 144.7 60.1 144.3 59.7 153.3 59.7"/>
      <polygon points="144.3 59.7 144.7 60.1 144.7 68.4 144.5 68.5 144.3 68.5 144.3 59.7"/>
      <polygon points="153.1 68.7 153.2 68.5 153.3 68.5 159.3 74.4 159.3 74.6 159.1 74.7 153.1 68.7"/>
      <polygon points="159.1 74.7 159.3 74.6 159.4 74.8 157.2 82.9 156.8 83 159.1 74.7"/>
      <rect x="156.2" y="79" width="6.8" height=".4" transform="translate(41.8 212.9) rotate(-75)"/>
      <polygon points="156.8 83 157.2 82.9 163.2 88.9 163.1 89.3 156.8 83"/>
      <polygon points="163.1 89.3 163.2 88.9 171.3 86.7 171.6 87 163.1 89.3"/>
      <rect x="163.5" y="86.3" width="6.8" height=".4" transform="translate(-16.7 46.2) rotate(-15)"/>
      <polygon points="171.6 87 171.3 86.7 173.5 78.6 173.9 78.5 171.6 87"/>
      <polygon points="173.9 78.5 173.5 78.6 167.6 72.6 167.7 72.2 173.9 78.5"/>
      <rect x="169.4" y="73.1" width=".4" height="6.8" transform="translate(-4.5 142.3) rotate(-45)"/>
      <polygon points="167.7 72.2 167.6 72.6 159.4 74.8 159.3 74.6 159.3 74.4 167.7 72.2"/>
      <text class="cls-10" transform="translate(119.8 97.9)"><tspan x="0" y="0">1,2-Diphenylcyclobutane</tspan></text>
      <path class="cls-2" d="M119.6,85.8c-11,6.4-14.8,20.4-8.4,31.5,4.2,7.3,12.7,11.9,21.2,11.5"/>
      <path d="M134.8,128.5l-2.8,1.1s.3-.5.2-.8c0-.3-.5-.7-.5-.7l3,.4Z"/>
      <polygon points="99.2 132.2 99.4 132.2 99.4 132.5 95.4 139.5 95.1 139.7 95 139.5 99.2 132.2"/>
      <polygon points="95.2 139.8 95.1 139.7 95.4 139.5 103.5 139.5 103.8 139.7 103.7 139.8 95.2 139.8"/>
      <rect x="97.8" y="137.9" width="3.3" height=".4"/>
      <polygon points="103.9 139.5 103.8 139.7 103.5 139.5 99.4 132.5 99.4 132.2 99.7 132.2 103.9 139.5"/>
      <text class="cls-10" transform="translate(88.3 128.2)"><tspan x="0" y="0">Cl</tspan></text>
      <polygon points="99.4 131.9 99.4 132.2 99.2 132.2 94.9 127.9 95.2 127.6 99.4 131.9"/>
      <text class="cls-10" transform="translate(103.4 128.2)"><tspan x="0" y="0">Cl</tspan></text>
      <polygon points="99.7 132.2 99.4 132.2 99.4 131.9 103.2 128.1 103.5 128.4 99.7 132.2"/>
      <text class="cls-10" transform="translate(82.6 146.2)"><tspan x="0" y="0">Cl</tspan></text>
      <polygon points="95 139.5 95.1 139.7 95.2 139.8 89.4 143.2 89.2 142.9 95 139.5"/>
      <text class="cls-10" transform="translate(109.1 146.2)"><tspan x="0" y="0">Cl</tspan></text>
      <polygon points="103.7 139.8 103.8 139.7 103.9 139.5 108.8 142.3 108.6 142.6 103.7 139.8"/>
      <text class="cls-10" transform="translate(93.6 151)"><tspan x="0" y="0">AlCl</tspan></text>
      <text class="cls-10" transform="translate(104.6 153) scale(.6)"><tspan x="0" y="0">3</tspan></text>
      <polygon points="157 131.2 157.2 131.1 157.4 131.2 157.4 139.7 157.2 139.8 157 139.7 157 131.2"/>
      <rect x="155.4" y="132" width=".4" height="6.8"/>
      <polygon points="157.2 140 157.2 139.8 157.4 139.7 163.4 145.7 163.3 145.9 163.1 145.9 157.2 140"/>
      <polygon points="163.5 146 163.3 145.9 163.4 145.7 171.9 145.7 171.9 145.9 171.8 146 163.5 146"/>
      <polygon points="172.1 145.9 171.9 145.9 171.9 145.7 177.9 139.7 178 139.8 178.1 140 172.1 145.9"/>
      <polygon points="178.2 139.7 178 139.8 177.9 139.7 177.9 131.2 178 131.1 178.2 131.2 178.2 139.7"/>
      <rect x="179.4" y="132" width=".4" height="6.8"/>
      <polygon points="178.1 130.9 178 131.1 177.9 131.2 171.9 125.2 171.9 125 172.1 124.9 178.1 130.9"/>
      <polygon points="171.6 124.8 171.9 125 171.9 125.2 163.4 125.2 163.3 125 163.6 124.8 171.6 124.8"/>
      <rect x="163.9" y="126.4" width="7.4" height=".4"/>
      <polygon points="163.1 124.9 163.3 125 163.4 125.2 157.4 131.2 157.2 131.1 157.2 130.9 163.1 124.9"/>
      <polygon points="157.2 130.9 157.2 131.1 157 131.2 149.7 127 149.7 126.6 157.2 130.9"/>
      <polygon points="149.7 126.6 149.7 127 142.4 131.2 142 131 149.7 126.6"/>
      <rect x="143.3" y="130.1" width="6.8" height=".4" transform="translate(-45.5 90.8) rotate(-30)"/>
      <polygon points="142 131 142.4 131.2 142.4 139.7 142 139.9 142 131"/>
      <polygon points="142 139.9 142.4 139.7 149.7 143.9 149.7 144.3 142 139.9"/>
      <rect x="146.6" y="137.1" width=".4" height="6.8" transform="translate(-48.4 197.4) rotate(-60)"/>
      <polygon points="149.7 144.3 149.7 143.9 157 139.7 157.2 139.8 157.2 140 149.7 144.3"/>
      <polygon points="178.1 140 178 139.8 178.2 139.7 185.5 143.9 185.5 144.3 178.1 140"/>
      <polygon points="185.5 144.3 185.5 143.9 192.8 139.7 193.2 139.9 185.5 144.3"/>
      <rect x="185.1" y="140.4" width="6.8" height=".4" transform="translate(-45 113.1) rotate(-30)"/>
      <polygon points="193.2 139.9 192.8 139.7 192.8 131.2 193.2 131 193.2 139.9"/>
      <polygon points="193.2 131 192.8 131.2 185.5 127 185.5 126.6 193.2 131"/>
      <rect x="188.3" y="126.9" width=".4" height="6.8" transform="translate(-18.6 228.4) rotate(-60)"/>
      <polygon points="185.5 126.6 185.5 127 178.2 131.2 178 131.1 178.1 130.9 185.5 126.6"/>
      <polygon points="163.1 145.9 163.3 145.9 163.5 146 163.5 154.3 163.1 154.7 163.1 145.9"/>
      <polygon points="163.1 154.7 163.5 154.3 171.8 154.3 172.1 154.7 163.1 154.7"/>
      <polygon points="172.1 154.7 171.8 154.3 171.8 146 171.9 145.9 172.1 145.9 172.1 154.7"/>
      <polygon points="172.1 124.9 171.9 125 171.6 124.8 167.6 117.9 167.6 117.2 172.1 124.9"/>
      <polygon points="167.6 117.2 167.6 117.9 163.6 124.8 163.3 125 163.1 124.9 167.6 117.2"/>
      <text class="cls-10" transform="translate(165.3 111.1)"><tspan x="0" y="0">O</tspan></text>
      <rect x="166.7" y="112.1" width=".4" height="6.8"/>
      <rect x="168.2" y="112.1" width=".4" height="6.8"/>
      <text class="cls-10" transform="translate(144.6 163.5)"><tspan x="0" y="0">Photo-4C-DMBO</tspan></text>
      <rect x="201.4" y="134.7" width="48.6" height=".4"/>
      <path d="M253.1,134.9l-3.6.9s.4-.5.4-.9-.4-1-.4-1l3.6,1Z"/>
      <polygon points="273.6 129.8 273.8 129.7 274 129.8 274 138.3 273.8 138.3 273.6 138.2 273.6 129.8"/>
      <rect x="272.1" y="130.6" width=".4" height="6.8"/>
      <polygon points="273.8 138.6 273.8 138.3 274 138.3 280 144.3 279.9 144.4 279.8 144.5 273.8 138.6"/>
      <polygon points="280.1 144.6 279.9 144.4 280 144.3 288.5 144.3 288.6 144.4 288.4 144.6 280.1 144.6"/>
      <polygon points="288.8 144.5 288.6 144.4 288.5 144.3 294.5 138.3 294.7 138.3 294.7 138.6 288.8 144.5"/>
      <polygon points="294.9 138.2 294.7 138.3 294.5 138.3 294.5 129.8 294.7 129.7 294.9 129.8 294.9 138.2"/>
      <rect x="296.1" y="130.6" width=".4" height="6.8"/>
      <polygon points="294.7 129.5 294.7 129.7 294.5 129.8 288.5 123.8 288.6 123.4 294.7 129.5"/>
      <rect class="cls-15" x="279.9" y="125" width="8.6" height=".4"/>
      <polygon class="cls-15" points="288.6 123.4 288.5 123.8 280 123.8 279.9 123.4 288.6 123.4"/>
      <rect class="cls-15" x="279.9" y="121.8" width="8.6" height=".4"/>
      <polygon points="279.9 123.4 280 123.8 274 129.8 273.8 129.7 273.8 129.5 279.9 123.4"/>
      <polygon points="273.8 129.5 273.8 129.7 273.6 129.8 266.3 125.6 266.3 125.2 273.8 129.5"/>
      <polygon points="266.3 125.2 266.3 125.6 259 129.8 258.7 129.6 266.3 125.2"/>
      <rect x="260" y="128.7" width="6.8" height=".4" transform="translate(-29.1 149) rotate(-30)"/>
      <polygon points="258.7 129.6 259 129.8 259 138.2 258.7 138.4 258.7 129.6"/>
      <polygon points="258.7 138.4 259 138.2 266.3 142.4 266.3 142.9 258.7 138.4"/>
      <rect x="263.2" y="135.7" width=".4" height="6.8" transform="translate(11.2 297.7) rotate(-60)"/>
      <polygon points="266.3 142.9 266.3 142.4 273.6 138.2 273.8 138.3 273.8 138.6 266.3 142.9"/>
      <polygon points="294.7 138.6 294.7 138.3 294.9 138.2 302.2 142.4 302.2 142.9 294.7 138.6"/>
      <polygon points="302.2 142.9 302.2 142.4 309.5 138.2 309.8 138.4 302.2 142.9"/>
      <rect x="301.7" y="139" width="6.8" height=".4" transform="translate(-28.7 171.2) rotate(-30)"/>
      <polygon points="309.8 138.4 309.5 138.2 309.5 129.8 309.8 129.6 309.8 138.4"/>
      <polygon points="309.8 129.6 309.5 129.8 302.2 125.6 302.2 125.2 309.8 129.6"/>
      <rect x="305" y="125.5" width=".4" height="6.8" transform="translate(41 328.7) rotate(-60)"/>
      <polygon points="302.2 125.2 302.2 125.6 294.9 129.8 294.7 129.7 294.7 129.5 302.2 125.2"/>
      <polygon points="279.8 144.5 279.9 144.4 280.1 144.6 280.1 152.9 279.8 153.3 279.8 144.5"/>
      <polygon points="279.8 153.3 280.1 152.9 288.4 152.9 288.8 153.3 279.8 153.3"/>
      <polygon points="288.8 153.3 288.4 152.9 288.4 144.6 288.6 144.4 288.8 144.5 288.8 153.3"/>
      <text class="cls-10" transform="translate(269.1 163.5)"><tspan x="0" y="0">4C-DMBO</tspan></text>
      <g>
        <path class="cls-26" d="M16.7,38.2c1.2-.9,2.3-1.8,3.7-2.5,0,.8-.3,1.6-.3,2.4-.5,4-.7,8.2-.3,12.2.1.9.2,1.9.5,2.8.9-1.4,1.8-2.8,3.2-3.7.1.8.1,1.5.2,2.3.4,4.4,1.4,8.7,3.1,12.8.5,1.1,1,2.3,1.7,3.3.5-1.1.9-2.3,1.8-3.2.2.5.3,1,.4,1.6,1.7,7.4,5.6,14.2,10.6,19.9.4.4.8.9,1.2,1.4-.5-.2-1-.6-1.5-.9-2.1-1.4-4.1-2.9-5.9-4.6-2.5-2.5-4.7-5.3-6.4-8.4-.6.8-1,1.7-1.4,2.7-1-1-1.8-2.1-2.6-3.2-2.1-2.8-3.9-5.8-5.5-8.9-.5-.8-.7-1.7-1.2-2.6-.8.8-1.5,1.7-2.1,2.6-.8-1.3-1.5-2.7-2.2-4.1-.8-1.7-1.6-3.5-2.2-5.3-.9-2.6-1.6-5.3-1.9-8-.1-.5.3-1,.5-1.4,1.8-2.8,4.1-5.2,6.7-7.3Z"/>
        <path class="cls-6" d="M16.7,38.2c1.2-.9,2.3-1.8,3.7-2.5,0,.8-.3,1.6-.3,2.4-.5,4-.7,8.2-.3,12.2.1.9.2,1.9.5,2.8.9-1.4,1.8-2.8,3.2-3.7.1.8.1,1.5.2,2.3.4,4.4,1.4,8.7,3.1,12.8.5,1.1,1,2.3,1.7,3.3.5-1.1.9-2.3,1.8-3.2.2.5.3,1,.4,1.6,1.7,7.4,5.6,14.2,10.6,19.9.4.4.8.9,1.2,1.4-.5-.2-1-.6-1.5-.9-2.1-1.4-4.1-2.9-5.9-4.6-2.5-2.5-4.7-5.3-6.4-8.4-.6.8-1,1.7-1.4,2.7-1-1-1.8-2.1-2.6-3.2-2.1-2.8-3.9-5.8-5.5-8.9-.5-.8-.7-1.7-1.2-2.6-.8.8-1.5,1.7-2.1,2.6-.8-1.3-1.5-2.7-2.2-4.1-.8-1.7-1.6-3.5-2.2-5.3-.9-2.6-1.6-5.3-1.9-8-.1-.5.3-1,.5-1.4,1.8-2.8,4.1-5.2,6.7-7.3"/>
      </g>
      <path class="cls-23" d="M233.6,141.7c1,.3,2,.7,2.9,1.2-.5.3-1,.5-1.5.7-2.6,1.3-5.1,2.8-7.4,4.6-.5.4-1,.9-1.4,1.4,1.2,0,2.4,0,3.5.4-.4.4-.9.7-1.3,1-2.5,1.9-4.7,4.3-6.4,6.9-.5.8-1,1.5-1.3,2.3.9-.2,1.7-.4,2.6-.2-.2.3-.5.6-.8.8-3.7,3.9-6.2,8.9-7.7,14.1-.1.4-.2.8-.3,1.2,0-.4,0-.8,0-1.2,0-1.8.1-3.6.4-5.3.5-2.5,1.3-4.9,2.5-7.1-.7,0-1.4,0-2.1.2.2-1,.6-1.9.9-2.8.8-2.4,1.9-4.6,3.1-6.8.3-.6.7-1.1,1.1-1.7-.8-.2-1.6-.2-2.4-.2.4-1,1-2,1.5-2.9.7-1.1,1.4-2.3,2.3-3.4,1.2-1.5,2.5-3,4-4.3.3-.3.7-.2,1-.2,2.4,0,4.7.4,7,1.1Z"/>
      <path class="cls-6" d="M233.6,141.7c1,.3,2,.7,2.9,1.2-.5.3-1,.5-1.5.7-2.6,1.3-5.1,2.8-7.4,4.6-.5.4-1,.9-1.4,1.4,1.2,0,2.4,0,3.5.4-.4.4-.9.7-1.3,1-2.5,1.9-4.7,4.3-6.4,6.9-.5.8-1,1.5-1.3,2.3.9-.2,1.7-.4,2.6-.2-.2.3-.5.6-.8.8-3.7,3.9-6.2,8.9-7.7,14.1-.1.4-.2.8-.3,1.2,0-.4,0-.8,0-1.2,0-1.8.1-3.6.4-5.3.5-2.5,1.3-4.9,2.5-7.1-.7,0-1.4,0-2.1.2.2-1,.6-1.9.9-2.8.8-2.4,1.9-4.6,3.1-6.8.3-.6.7-1.1,1.1-1.7-.8-.2-1.6-.2-2.4-.2.4-1,1-2,1.5-2.9.7-1.1,1.4-2.3,2.3-3.4,1.2-1.5,2.5-3,4-4.3.3-.3.7-.2,1-.2,2.4,0,4.7.4,7,1.1"/>
      <text class="cls-10" transform="translate(66.6 163.6)"><tspan x="0" y="0">Tetrachlorocyclopropene</tspan></text>
    </g>
  </g>
</svg>